<?xml version="1.0" encoding="UTF-8" standalone="no"?>
<!-- Created with Inkscape (http://www.inkscape.org/) -->

<svg
   xmlns:dc="http://purl.org/dc/elements/1.1/"
   xmlns:cc="http://creativecommons.org/ns#"
   xmlns:rdf="http://www.w3.org/1999/02/22-rdf-syntax-ns#"
   xmlns:svg="http://www.w3.org/2000/svg"
   xmlns="http://www.w3.org/2000/svg"
   xmlns:sodipodi="http://sodipodi.sourceforge.net/DTD/sodipodi-0.dtd"
   xmlns:inkscape="http://www.inkscape.org/namespaces/inkscape"
   width="102.01591mm"
   height="50.162521mm"
   viewBox="0 0 361.47372 177.74121"
   id="svg4194"
   version="1.1"
   inkscape:version="0.91 r13725"
   sodipodi:docname="aboutUs.svg">
  <defs
     id="defs4196">
    <inkscape:perspective
       sodipodi:type="inkscape:persp3d"
       inkscape:vp_x="0 : 872.44689 : 1"
       inkscape:vp_y="0 : 999.99999 : 0"
       inkscape:vp_z="736.72643 : 872.44689 : 1"
       inkscape:persp3d-origin="368.36321 : 581.63127 : 1"
       id="perspective6994" />
  </defs>
  <sodipodi:namedview
     id="base"
     pagecolor="#ffffff"
     bordercolor="#666666"
     borderopacity="1.0"
     inkscape:pageopacity="0.0"
     inkscape:pageshadow="2"
     inkscape:zoom="1.6332045"
     inkscape:cx="175.93318"
     inkscape:cy="4.3734105"
     inkscape:document-units="px"
     inkscape:current-layer="layer1"
     showgrid="false"
     showguides="false"
     inkscape:window-width="1306"
     inkscape:window-height="841"
     inkscape:window-x="69"
     inkscape:window-y="3"
     inkscape:window-maximized="0"
     fit-margin-top="0"
     fit-margin-left="0"
     fit-margin-right="0"
     fit-margin-bottom="0" />
  <metadata
     id="metadata4199">
    <rdf:RDF>
      <cc:Work
         rdf:about="">
        <dc:format>image/svg+xml</dc:format>
        <dc:type
           rdf:resource="http://purl.org/dc/dcmitype/StillImage" />
        <dc:title></dc:title>
      </cc:Work>
    </rdf:RDF>
  </metadata>
  <g
     inkscape:label="Layer 1"
     inkscape:groupmode="layer"
     id="layer1"
     transform="translate(-204.70197,-275.49329)">
    <g
       id="g4362">
      <rect
         y="275.49329"
         x="204.70197"
         height="177.74121"
         width="361.47372"
         id="rect5550"
         style="opacity:1;fill:#d8d8d8;fill-opacity:1;fill-rule:nonzero;stroke:none;stroke-width:2;stroke-linecap:round;stroke-linejoin:round;stroke-miterlimit:4;stroke-dasharray:none;stroke-opacity:1" />
      <g
         transform="translate(-0.92003299,0)"
         id="g4351">
        <g
           id="g4341">
          <path
             style="fill:#e5e5e5;fill-opacity:1;fill-rule:evenodd;stroke:#e5e5e5;stroke-width:0.61388016px;stroke-linecap:butt;stroke-linejoin:miter;stroke-opacity:1"
             d="m 292.73778,303.85707 31.37446,113.76979 62.25764,31.12442 61.57652,-29.51204 32.36602,-111.65722 -93.6321,-24.68921 z"
             id="path4594"
             inkscape:connector-curvature="0"
             sodipodi:nodetypes="ccccccc" />
          <path
             style="fill:#c5c5c5;fill-opacity:1;fill-rule:evenodd;stroke:#c5c5c5;stroke-width:0.61388016px;stroke-linecap:butt;stroke-linejoin:miter;stroke-opacity:1"
             d="m 386.04044,293.42411 -0.0951,148.95463 -57.95851,-28.28512 -28.49462,-106.34347 z"
             id="path4596"
             inkscape:connector-curvature="0"
             sodipodi:nodetypes="ccccc" />
          <path
             style="fill:#c5c5c5;fill-opacity:1;fill-rule:evenodd;stroke:#c5c5c5;stroke-width:0.61388016px;stroke-linecap:butt;stroke-linejoin:miter;stroke-opacity:1"
             d="m 385.85661,322.46834 84.24824,0 -7.32048,27.6101 -76.69907,0 z"
             id="path4598"
             inkscape:connector-curvature="0"
             sodipodi:nodetypes="ccccc" />
          <path
             inkscape:connector-curvature="0"
             id="path4600"
             d="m 370.98,378.41737 84.09297,0 -7.24288,27.61013 -76.62139,0 z"
             style="fill:#c5c5c5;fill-opacity:1;fill-rule:evenodd;stroke:#c5c5c5;stroke-width:0.61388016px;stroke-linecap:butt;stroke-linejoin:miter;stroke-opacity:1"
             sodipodi:nodetypes="ccccc" />
          <path
             style="fill:#d9d9d9;fill-opacity:1"
             d="m 369.36665,354.99558 c 0.65498,2.10344 1.25626,3.84951 1.33621,3.88014 0.0799,0.0307 1.93844,-0.30857 4.12995,-0.7538 2.19153,-0.44523 3.98441,-0.79022 3.98417,-0.76663 -2.3e-4,0.0236 -1.26434,1.41584 -2.80911,3.09387 l -2.80866,3.051 0.71768,0.83587 c 0.39474,0.45973 1.62491,1.86282 2.73372,3.11797 1.10881,1.25516 1.99818,2.29995 1.97635,2.32174 -0.0391,0.0391 -7.55564,-1.6013 -7.90537,-1.72525 -0.1221,-0.0433 -0.60471,1.20031 -1.49699,3.85768 -0.72424,2.15685 -1.35054,3.92121 -1.39182,3.9208 -0.0412,-2e-4 -0.63198,-1.77701 -1.3127,-3.94799 -0.83867,-2.67479 -1.29614,-3.92783 -1.4191,-3.88701 -0.35216,0.11689 -7.90015,1.60579 -7.93848,1.56593 -0.0213,-0.0223 0.88882,-1.04892 2.02265,-2.28153 1.13383,-1.23261 2.39197,-2.61067 2.79586,-3.06237 l 0.73435,-0.82126 -2.74674,-3.10687 c -1.5107,-1.70876 -2.74655,-3.12614 -2.74632,-3.14973 2.3e-4,-0.0236 1.78581,0.35738 3.96793,0.84659 2.18213,0.48922 4.03342,0.86574 4.11397,0.83671 0.0805,-0.0291 0.71683,-1.76264 1.41397,-3.85249 0.69713,-2.08984 1.31029,-3.79929 1.36257,-3.79877 0.0523,6.5e-4 0.63094,1.72196 1.28591,3.8254 z"
             id="path4604"
             inkscape:connector-curvature="0" />
          <path
             inkscape:connector-curvature="0"
             id="path4606"
             d="m 332.52443,355.11135 c 0.67923,2.09573 1.30066,3.83472 1.38097,3.86444 0.0803,0.0298 1.93473,-0.33096 4.12096,-0.8015 2.18623,-0.47053 3.97499,-0.83621 3.97503,-0.81262 5e-5,0.0236 -1.24788,1.43035 -2.77315,3.12613 l -2.77322,3.08326 0.72731,0.82752 c 0.40002,0.45513 1.64632,1.8439 2.76957,3.08616 1.12325,1.24227 2.02462,2.2767 2.00305,2.29874 -0.0387,0.0396 -7.57365,-1.51385 -7.92479,-1.63376 -0.12258,-0.0418 -0.59078,1.20721 -1.4523,3.87472 -0.69924,2.16509 -1.30513,3.93657 -1.3464,3.93663 -0.0413,2.8e-4 -0.65248,-1.76958 -1.35823,-3.93256 -0.86954,-2.66491 -1.34147,-3.91257 -1.46396,-3.87034 -0.35078,0.12095 -7.88105,1.69701 -7.91984,1.65758 -0.0215,-0.0221 0.87663,-1.05912 1.99613,-2.30475 1.11952,-1.24563 2.36165,-2.63814 2.76028,-3.09448 l 0.72482,-0.8297 -2.78247,-3.0749 c -1.53036,-1.6912 -2.78251,-3.0942 -2.78254,-3.11779 -5e-5,-0.0236 1.78982,0.33672 3.97746,0.80067 2.18764,0.46397 4.04314,0.81906 4.12335,0.78911 0.0802,-0.03 0.69642,-1.77082 1.36934,-3.86858 0.67294,-2.09776 1.2663,-3.81418 1.3186,-3.81426 0.0523,4e-5 0.65078,1.71455 1.33003,3.81028 z"
             style="fill:#d9d9d9;fill-opacity:1" />
          <path
             inkscape:connector-curvature="0"
             id="path4610"
             d="m 442.45609,354.92292 c 0.65498,2.10344 1.25626,3.84951 1.33621,3.88014 0.0799,0.0307 1.93844,-0.30857 4.12995,-0.7538 2.19153,-0.44523 3.98441,-0.79022 3.98417,-0.76663 -2.3e-4,0.0236 -1.26434,1.41584 -2.80911,3.09387 l -2.80866,3.051 0.71768,0.83587 c 0.39474,0.45973 1.62491,1.86282 2.73372,3.11797 1.10881,1.25516 1.99818,2.29995 1.97635,2.32174 -0.0391,0.0391 -7.55564,-1.6013 -7.90537,-1.72525 -0.1221,-0.0433 -0.60471,1.20031 -1.49699,3.85768 -0.72424,2.15685 -1.35054,3.92121 -1.39182,3.9208 -0.0412,-2e-4 -0.63198,-1.77701 -1.3127,-3.94799 -0.83867,-2.67479 -1.29614,-3.92783 -1.4191,-3.88701 -0.35216,0.11689 -7.90015,1.60579 -7.93848,1.56593 -0.0213,-0.0223 0.88882,-1.04892 2.02265,-2.28153 1.13383,-1.23261 2.39197,-2.61067 2.79586,-3.06237 l 0.73435,-0.82126 -2.74674,-3.10687 c -1.5107,-1.70876 -2.74655,-3.12614 -2.74632,-3.14973 2.3e-4,-0.0236 1.78581,0.35738 3.96793,0.84659 2.18213,0.48922 4.03342,0.86574 4.11397,0.83671 0.0805,-0.0291 0.71683,-1.76264 1.41397,-3.85249 0.69713,-2.08984 1.31029,-3.79929 1.36257,-3.79877 0.0523,6.5e-4 0.63094,1.72196 1.28591,3.8254 z"
             style="fill:#c5c5c5;fill-opacity:1;stroke:none;stroke-opacity:1" />
          <path
             style="fill:#c5c5c5;fill-opacity:1;stroke:none;stroke-opacity:1"
             d="m 405.61387,355.03869 c 0.67923,2.09573 1.30066,3.83472 1.38097,3.86444 0.0803,0.0298 1.93473,-0.33096 4.12096,-0.8015 2.18623,-0.47053 3.97499,-0.83621 3.97503,-0.81262 5e-5,0.0236 -1.24788,1.43035 -2.77315,3.12613 l -2.77322,3.08326 0.72731,0.82752 c 0.40002,0.45513 1.64632,1.8439 2.76957,3.08616 1.12325,1.24227 2.02462,2.2767 2.00305,2.29874 -0.0387,0.0396 -7.57365,-1.51385 -7.92479,-1.63376 -0.12258,-0.0418 -0.59078,1.20721 -1.4523,3.87472 -0.69924,2.16509 -1.30513,3.93657 -1.3464,3.93663 -0.0412,2.8e-4 -0.65248,-1.76958 -1.35823,-3.93256 -0.86954,-2.66491 -1.34147,-3.91257 -1.46396,-3.87034 -0.35078,0.12095 -7.88105,1.69701 -7.91984,1.65758 -0.0215,-0.0221 0.87663,-1.05912 1.99613,-2.30475 1.11952,-1.24563 2.36165,-2.63814 2.76028,-3.09448 l 0.72482,-0.8297 -2.78247,-3.0749 c -1.53036,-1.6912 -2.78251,-3.0942 -2.78254,-3.11779 -5e-5,-0.0236 1.78982,0.33672 3.97746,0.80067 2.18764,0.46397 4.04314,0.81906 4.12335,0.78911 0.0802,-0.03 0.69642,-1.77082 1.36934,-3.86858 0.67294,-2.09776 1.2663,-3.81418 1.3186,-3.81426 0.0523,4e-5 0.65078,1.71455 1.33003,3.81028 z"
             id="path4612"
             inkscape:connector-curvature="0" />
        </g>
      </g>
    </g>
    <text
       xml:space="preserve"
       style="font-style:normal;font-weight:normal;font-size:11.25px;line-height:0%;font-family:sans-serif;letter-spacing:0px;word-spacing:0px;fill:#000000;fill-opacity:1;stroke:none;stroke-width:1px;stroke-linecap:butt;stroke-linejoin:miter;stroke-opacity:1"
       x="393.05035"
       y="561.8396"
       id="text5493"
       sodipodi:linespacing="0%"><tspan
         sodipodi:role="line"
         id="tspan5495"
         x="393.05035"
         y="561.8396" /></text>
    <text
       xml:space="preserve"
       style="font-style:normal;font-weight:normal;font-size:10px;line-height:0%;font-family:sans-serif;letter-spacing:0px;word-spacing:0px;fill:#000000;fill-opacity:1;stroke:none;stroke-width:1px;stroke-linecap:butt;stroke-linejoin:miter;stroke-opacity:1"
       x="379.87842"
       y="619.79608"
       id="text5513"
       sodipodi:linespacing="0%"><tspan
         sodipodi:role="line"
         id="tspan5515"
         x="379.87842"
         y="619.79608" /></text>
  </g>
</svg>
