<?xml version="1.0" encoding="UTF-8" standalone="no"?>
<!-- Created with Inkscape (http://www.inkscape.org/) -->

<svg
   xmlns:dc="http://purl.org/dc/elements/1.1/"
   xmlns:cc="http://creativecommons.org/ns#"
   xmlns:rdf="http://www.w3.org/1999/02/22-rdf-syntax-ns#"
   xmlns:svg="http://www.w3.org/2000/svg"
   xmlns="http://www.w3.org/2000/svg"
   xmlns:sodipodi="http://sodipodi.sourceforge.net/DTD/sodipodi-0.dtd"
   xmlns:inkscape="http://www.inkscape.org/namespaces/inkscape"
   width="42.274792mm"
   height="21.370876mm"
   viewBox="0 0 149.79257 75.723577"
   id="svg4213"
   version="1.1"
   inkscape:version="0.91 r13725"
   sodipodi:docname="MainLogo.svg">
  <defs
     id="defs4215" />
  <sodipodi:namedview
     id="base"
     pagecolor="#ffffff"
     bordercolor="#666666"
     borderopacity="1.0"
     inkscape:pageopacity="0.0"
     inkscape:pageshadow="2"
     inkscape:zoom="3.6824053"
     inkscape:cx="114.20533"
     inkscape:cy="1.8082334"
     inkscape:document-units="px"
     inkscape:current-layer="layer1"
     showgrid="false"
     fit-margin-top="0"
     fit-margin-left="0"
     fit-margin-right="0"
     fit-margin-bottom="0"
     inkscape:window-width="1440"
     inkscape:window-height="851"
     inkscape:window-x="0"
     inkscape:window-y="0"
     inkscape:window-maximized="1" />
  <metadata
     id="metadata4218">
    <rdf:RDF>
      <cc:Work
         rdf:about="">
        <dc:format>image/svg+xml</dc:format>
        <dc:type
           rdf:resource="http://purl.org/dc/dcmitype/StillImage" />
        <dc:title></dc:title>
      </cc:Work>
    </rdf:RDF>
  </metadata>
  <g
     inkscape:label="Layer 1"
     inkscape:groupmode="layer"
     id="layer1"
     transform="translate(-125.14447,458.45023)">
    <text
       xml:space="preserve"
       style="font-style:normal;font-weight:normal;font-size:11.25px;line-height:0%;font-family:sans-serif;letter-spacing:0px;word-spacing:0px;fill:#000000;fill-opacity:1;stroke:none;stroke-width:1px;stroke-linecap:butt;stroke-linejoin:miter;stroke-opacity:1"
       x="95.656471"
       y="188.32654"
       id="text5493"
       sodipodi:linespacing="0%"><tspan
         sodipodi:role="line"
         id="tspan5495"
         x="95.656471"
         y="188.32654" /></text>
    <text
       xml:space="preserve"
       style="font-style:normal;font-weight:normal;font-size:10px;line-height:0%;font-family:sans-serif;letter-spacing:0px;word-spacing:0px;fill:#000000;fill-opacity:1;stroke:none;stroke-width:1px;stroke-linecap:butt;stroke-linejoin:miter;stroke-opacity:1"
       x="82.484535"
       y="246.28302"
       id="text5513"
       sodipodi:linespacing="0%"><tspan
         sodipodi:role="line"
         id="tspan5515"
         x="82.484535"
         y="246.28302" /></text>
    <path
       sodipodi:nodetypes="ccccccc"
       inkscape:connector-curvature="0"
       id="path3471"
       d="m 170.50658,-451.72694 9.91253,35.9447 19.66983,9.83353 19.45462,-9.32411 10.22582,-35.27726 -29.58236,-7.80036 z"
       style="fill:#a1a1a1;fill-opacity:1;fill-rule:evenodd;stroke:#d9d9d9;stroke-width:0.19395082px;stroke-linecap:butt;stroke-linejoin:miter;stroke-opacity:1" />
    <path
       sodipodi:nodetypes="ccccc"
       inkscape:connector-curvature="0"
       id="path3473"
       d="m 199.98485,-455.03488 -0.0306,47.07281 -18.31154,-8.93647 -9.00264,-33.59841 z"
       style="fill:#3a3a3a;fill-opacity:1;fill-rule:evenodd;stroke:none;stroke-width:0.19395082px;stroke-linecap:butt;stroke-linejoin:miter;stroke-opacity:1" />
    <path
       sodipodi:nodetypes="ccccc"
       style="fill:#000000;fill-opacity:1;fill-rule:evenodd;stroke:#000000;stroke-width:0.19395082px;stroke-linecap:butt;stroke-linejoin:miter;stroke-opacity:1"
       d="m 195.22663,-428.17018 26.56854,0 -2.40655,8.72321 -24.08975,0 z"
       id="path3477"
       inkscape:connector-curvature="0" />
    <path
       style="fill:#000000;fill-opacity:1;fill-rule:evenodd;stroke:none;stroke-width:0.185;stroke-linecap:butt;stroke-linejoin:miter;stroke-miterlimit:4;stroke-dasharray:none;stroke-opacity:1"
       d="m 199.94537,-452.34454 0.015,41.28277 -16.14004,-7.70669 -7.54867,-29.88854 z"
       id="path5877"
       inkscape:connector-curvature="0"
       sodipodi:nodetypes="ccccc" />
    <path
       sodipodi:nodetypes="ccccc"
       inkscape:connector-curvature="0"
       id="path3475"
       d="m 198.75669,-445.84461 27.78448,0 -2.41424,8.71873 -25.2948,0 z"
       style="fill:#000000;fill-opacity:1;fill-rule:evenodd;stroke:#000000;stroke-width:0.19810574px;stroke-linecap:butt;stroke-linejoin:miter;stroke-opacity:1" />
    <path
       inkscape:connector-curvature="0"
       id="path3481"
       d="m 195.26792,-435.00343 c 0.18869,0.6059 0.36185,1.10885 0.38487,1.11767 0.0217,0.009 0.55837,-0.0889 1.18965,-0.21713 0.63127,-0.12824 1.14771,-0.22762 1.14762,-0.22082 -6e-5,0.006 -0.36417,0.40783 -0.80915,0.89119 l -0.80904,0.87884 0.2067,0.24077 c 0.11359,0.13244 0.46806,0.53659 0.78745,0.89813 0.31939,0.36155 0.57557,0.66251 0.56929,0.66878 -0.0124,0.0112 -2.17641,-0.46125 -2.27715,-0.49695 -0.0351,-0.0124 -0.17411,0.34575 -0.43122,1.1112 -0.20856,0.62128 -0.389,1.1295 -0.40089,1.12938 -0.0124,-5e-5 -0.18218,-0.51186 -0.37811,-1.13721 -0.24146,-0.77047 -0.37337,-1.13141 -0.40878,-1.11966 -0.10148,0.0336 -2.27563,0.46255 -2.28667,0.45107 -0.006,-0.006 0.25604,-0.30214 0.5826,-0.65719 0.32662,-0.35506 0.689,-0.752 0.80535,-0.88212 l 0.21168,-0.23655 -0.79121,-0.89493 c -0.43516,-0.49221 -0.79114,-0.90049 -0.79107,-0.90729 5e-5,-0.006 0.51439,0.10295 1.14296,0.24386 0.62854,0.14093 1.16181,0.24937 1.18502,0.24102 0.0217,-0.008 0.20639,-0.50773 0.40729,-1.1097 0.2008,-0.60198 0.37742,-1.09439 0.39248,-1.09424 0.0155,1.9e-4 0.18187,0.496 0.37042,1.1019 z"
       style="fill:#a1a1a1;fill-opacity:1" />
    <path
       style="fill:#a1a1a1;fill-opacity:1"
       d="m 184.65552,-434.97009 c 0.19552,0.60368 0.37466,1.1046 0.39779,1.11316 0.0217,0.009 0.55731,-0.0953 1.18703,-0.23089 0.62975,-0.13553 1.14502,-0.24086 1.14502,-0.23407 0,0.006 -0.35946,0.41201 -0.79881,0.90048 l -0.79884,0.88813 0.2095,0.23836 c 0.11514,0.1311 0.4742,0.53113 0.79775,0.88897 0.32355,0.35783 0.5832,0.6558 0.57699,0.66215 -0.0124,0.0115 -2.18159,-0.43607 -2.28274,-0.47061 -0.0354,-0.0121 -0.17008,0.34774 -0.41833,1.11612 -0.20143,0.62365 -0.37595,1.13392 -0.38783,1.13394 -0.0124,8e-5 -0.18808,-0.50973 -0.39124,-1.13277 -0.25047,-0.76763 -0.3864,-1.12702 -0.42169,-1.11485 -0.10118,0.0348 -2.27013,0.48882 -2.28131,0.47746 -0.006,-0.006 0.25264,-0.30508 0.57497,-0.66388 0.3225,-0.3588 0.68029,-0.75992 0.79512,-0.89137 l 0.20887,-0.23897 -0.8015,-0.88573 c -0.44081,-0.48715 -0.80148,-0.89128 -0.80151,-0.89808 0,-0.006 0.51557,0.097 1.14572,0.23064 0.63014,0.13364 1.16464,0.23593 1.18772,0.2273 0.0217,-0.009 0.2005,-0.51008 0.39445,-1.11433 0.19398,-0.60426 0.36477,-1.09868 0.37982,-1.0987 0.0155,1e-5 0.18746,0.49387 0.3831,1.09755 z"
       id="path3483"
       inkscape:connector-curvature="0" />
    <path
       style="fill:#000000;fill-opacity:1"
       d="m 216.3213,-435.02437 c 0.1887,0.6059 0.36188,1.10885 0.38491,1.11768 0.0217,0.009 0.55837,-0.0889 1.18961,-0.21713 0.63127,-0.12824 1.14772,-0.22762 1.14765,-0.22083 -5e-5,0.006 -0.3642,0.40783 -0.80917,0.89119 l -0.80901,0.87885 0.20669,0.24077 c 0.11359,0.13244 0.46806,0.53658 0.78745,0.89813 0.31939,0.36155 0.57559,0.66251 0.56929,0.66878 -0.0124,0.0111 -2.1764,-0.46125 -2.27714,-0.49696 -0.0351,-0.0124 -0.17411,0.34575 -0.43119,1.1112 -0.20856,0.62129 -0.38904,1.12951 -0.40093,1.12939 -0.0124,-5e-5 -0.18218,-0.51186 -0.3781,-1.13722 -0.24147,-0.77047 -0.37337,-1.1314 -0.40878,-1.11965 -0.10149,0.0336 -2.27563,0.46255 -2.28668,0.45107 -0.006,-0.006 0.25604,-0.30214 0.58264,-0.6572 0.32659,-0.35505 0.689,-0.75199 0.80532,-0.88211 l 0.21167,-0.23656 -0.79121,-0.89493 c -0.43515,-0.4922 -0.79114,-0.90048 -0.79107,-0.90728 6e-5,-0.006 0.51439,0.10295 1.14296,0.24385 0.62854,0.1409 1.16181,0.24938 1.18503,0.24103 0.0217,-0.008 0.20638,-0.50773 0.40728,-1.10972 0.20081,-0.60197 0.37743,-1.09437 0.39248,-1.09423 0.0155,1.9e-4 0.18187,0.49601 0.37042,1.10191 z"
       id="path3487"
       inkscape:connector-curvature="0" />
    <path
       inkscape:connector-curvature="0"
       id="path3489"
       d="m 205.7089,-434.99102 c 0.19553,0.60368 0.37467,1.10459 0.39779,1.11315 0.0217,0.009 0.55732,-0.0953 1.18704,-0.23088 0.62975,-0.13553 1.14501,-0.24087 1.14501,-0.23407 3e-5,0.006 -0.35946,0.41201 -0.79881,0.90048 l -0.79881,0.88813 0.2095,0.23836 c 0.11515,0.13109 0.47424,0.53113 0.79779,0.88897 0.32355,0.35783 0.58317,0.65579 0.57696,0.66215 -0.0124,0.0115 -2.18159,-0.43607 -2.28274,-0.47061 -0.0354,-0.0121 -0.17008,0.34774 -0.41834,1.11611 -0.20142,0.62366 -0.37594,1.13393 -0.38782,1.13395 -0.0124,8e-5 -0.18808,-0.50972 -0.39125,-1.13277 -0.25046,-0.76763 -0.38639,-1.12702 -0.42169,-1.11486 -0.10086,0.0348 -2.27013,0.48883 -2.2813,0.47747 -0.006,-0.006 0.25263,-0.30509 0.575,-0.66388 0.32247,-0.3588 0.68025,-0.75992 0.79508,-0.89136 l 0.20887,-0.23902 -0.80147,-0.88572 c -0.44084,-0.48715 -0.8015,-0.89128 -0.8015,-0.89808 -4e-5,-0.006 0.51553,0.097 1.14569,0.23063 0.63015,0.13365 1.16463,0.23594 1.18772,0.22731 0.0217,-0.009 0.2005,-0.51008 0.39444,-1.11433 0.19398,-0.60427 0.36477,-1.09869 0.37982,-1.0987 0.0155,0 0.18746,0.49387 0.38311,1.09755 z"
       style="fill:#000000;fill-opacity:1" />
    <text
       sodipodi:linespacing="0%"
       id="text22913"
       y="-393.67554"
       x="124.08521"
       style="font-style:normal;font-variant:normal;font-weight:normal;font-stretch:normal;font-size:12.11927414px;line-height:0%;font-family:'Century Gothic';-inkscape-font-specification:'Century Gothic';letter-spacing:0px;word-spacing:0px;fill:#a1a1a1;fill-opacity:1;stroke:none;stroke-width:1px;stroke-linecap:butt;stroke-linejoin:miter;stroke-opacity:1"
       xml:space="preserve"><tspan
         y="-393.67554"
         x="124.08521"
         id="tspan22915"
         sodipodi:role="line">Livonia Black Car Services</tspan></text>
    <path
       style="fill:#3a3a3a;fill-opacity:1;fill-rule:evenodd;stroke:#3a3a3a;stroke-width:0.30000001;stroke-linecap:butt;stroke-linejoin:miter;stroke-miterlimit:4;stroke-dasharray:none;stroke-opacity:1"
       d="m 200.12913,-445.79375 -0.0117,2.38443 25.68891,0.0449 0.66731,-2.42657 z"
       id="path5881"
       inkscape:connector-curvature="0"
       sodipodi:nodetypes="ccccc" />
    <path
       sodipodi:nodetypes="ccccc"
       inkscape:connector-curvature="0"
       id="path5883"
       d="m 200.12189,-428.11799 0.003,2.47282 20.89077,0.0884 0.71974,-2.55841 z"
       style="fill:#3a3a3a;fill-opacity:1;fill-rule:evenodd;stroke:#3a3a3a;stroke-width:0.30000001;stroke-linecap:butt;stroke-linejoin:miter;stroke-miterlimit:4;stroke-dasharray:none;stroke-opacity:1" />
    <path
       sodipodi:nodetypes="ccccc"
       inkscape:connector-curvature="0"
       id="path5885"
       d="m 226.20542,-444.82508 -2.5217,-0.13211 -2.13241,7.77792 2.53759,10e-4 z"
       style="fill:#3a3a3a;fill-opacity:1;fill-rule:evenodd;stroke:#3a3a3a;stroke-width:0.30000001;stroke-linecap:butt;stroke-linejoin:miter;stroke-miterlimit:4;stroke-dasharray:none;stroke-opacity:1" />
    <path
       style="fill:#3a3a3a;fill-opacity:1;fill-rule:evenodd;stroke:#3a3a3a;stroke-width:0.30000001;stroke-linecap:butt;stroke-linejoin:miter;stroke-miterlimit:4;stroke-dasharray:none;stroke-opacity:1"
       d="m 221.45641,-427.14741 -2.5217,-0.13211 -2.13241,7.77792 2.53759,10e-4 z"
       id="path5900"
       inkscape:connector-curvature="0"
       sodipodi:nodetypes="ccccc" />
    <text
       xml:space="preserve"
       style="font-style:normal;font-weight:normal;font-size:8.22674274px;line-height:0%;font-family:sans-serif;letter-spacing:0px;word-spacing:0px;fill:#808080;fill-opacity:1;stroke:none;stroke-width:1px;stroke-linecap:butt;stroke-linejoin:miter;stroke-opacity:1"
       x="162.93608"
       y="-383.53287"
       id="text4158"
       sodipodi:linespacing="0%"><tspan
         sodipodi:role="line"
         id="tspan4160"
         x="162.93608"
         y="-383.53287"
         style="font-style:normal;font-variant:normal;font-weight:normal;font-stretch:normal;font-family:'Bank Gothic';-inkscape-font-specification:'Bank Gothic';fill:#808080;fill-opacity:1">Chicago, Illinois</tspan></text>
    <path
       inkscape:connector-curvature="0"
       id="path4227"
       d="m 134.70609,-385.30986 17.78971,0"
       style="fill:none;fill-rule:evenodd;stroke:#a1a1a1;stroke-width:0.5;stroke-linecap:butt;stroke-linejoin:miter;stroke-miterlimit:4;stroke-dasharray:none;stroke-opacity:1" />
    <path
       style="fill:none;fill-rule:evenodd;stroke:#a1a1a1;stroke-width:0.5;stroke-linecap:butt;stroke-linejoin:miter;stroke-miterlimit:4;stroke-dasharray:none;stroke-opacity:1"
       d="m 247.77758,-385.30986 17.78971,0"
       id="path4229"
       inkscape:connector-curvature="0" />
  </g>
</svg>
